# xmcd
#
# Track frame offsets:
#	150
#	13442
#	36725
#	54425
#	67425
#	79737
#	92100
#	105500
#	120212
#	138137
#	154312
#
# Disc length: 2302 seconds
#
# Revision: 2
# Processed by: cddbd v1.5.2PL0 Copyright (c) Steve Scherf et al.
# Submitted via: audiograbber 1.83.01
#
DISCID=9708fc0b
DTITLE=Blues Band - These Kind Of Blues
DYEAR=1986
DGENRE=Blues
TTITLE0=Tobacco Road
TTITLE1=Doing Allright
TTITLE2=Time After Time
TTITLE3=Stealing
TTITLE4=That's It I Quit
TTITLE5=Bad Penny Blues
TTITLE6=Let The Four Winds Blow
TTITLE7=Bad Luck
TTITLE8=Hardworking Man
TTITLE9=These Kind Of Blues
TTITLE10=Smokestack Lightning
EXTD=
EXTT0=
EXTT1=
EXTT2=
EXTT3=
EXTT4=
EXTT5=
EXTT6=
EXTT7=
EXTT8=
EXTT9=
EXTT10=
PLAYORDER=
